Spoken Language: Tagalog

Screens:
 
http://img826.imageshack.us/img826/2338/vlcsnap2012122904h45m01.png
 
http://img547.imageshack.us/img547/9200/vlcsnap2012122904h45m34.png
 
http://img22.imageshack.us/img22/6065/vlcsnap2012122904h45m50.png

[General]
Format: AVI
Format/Info: Audio Video Interleave
File size: 700 MiB
Duration: 1h 47mn
Overall bit rate: 911 Kbps

[Video]
Format: xvid
Codec ID: xvid
Bit rate: 769 Kbps
Width: 720 pixels
Height: 400 pixels
Display aspect ratio: 16:9
Frame rate: 29.970 fps
Bits/(Pixel*Frame): 0.089
Stream size: 591 MiB (84%)

[Audio]
Format: MPEG Audio
Format version: Version 1
Format profile: Layer 3
Mode: Joint stereo
Mode extension: MS Stereo
Codec ID: 55
Codec ID/Hint: MP3
Duration: 1h 47mn
Bit rate mode: Constant
Bit rate: 128 Kbps
Channel(s): 2 channels
Sampling rate: 48.0 KHz
Compression mode: Lossy
Stream size: 98.3 MiB (14%)
Alignment: Aligned on interleaves
Interleave, duration: 24 ms (0.72 video frame)